<svg version="1.0" xmlns="http://www.w3.org/2000/svg"
 width="30rem" height="30rem" viewBox="0 0 178.000000 178.000000"
 preserveAspectRatio="xMidYMid meet">

<g transform="translate(0.000000,178.000000) scale(0.100000,-0.100000)"
fill="#ffffff" stroke="none">
<path d="M880 1185 c0 -57 4 -95 10 -95 6 0 10 38 10 95 0 57 -4 95 -10 95 -6
0 -10 -38 -10 -95z"/>
<path d="M850 1163 l0 -56 -23 21 c-35 33 -80 29 -111 -10 -23 -30 -26 -31
-26 -11 0 25 43 63 71 63 11 0 19 5 19 11 0 7 -10 9 -27 5 -31 -7 -83 -58 -83
-81 0 -22 -37 -18 -60 5 -25 25 -35 25 -57 0 -15 -15 -35 -20 -93 -23 l-75 -3
86 -2 c69 -2 88 1 93 13 3 8 12 15 21 15 9 0 18 -7 21 -15 4 -10 20 -15 49
-15 35 0 46 -5 59 -25 27 -41 96 -30 96 16 0 19 -27 45 -37 35 -4 -4 -1 -11 6
-15 17 -11 10 -45 -10 -49 -19 -4 -49 23 -49 44 0 18 36 54 54 54 24 0 64 -40
71 -70 14 -63 25 -39 25 54 0 57 -4 96 -10 96 -5 0 -10 -26 -10 -57z"/>
<path d="M910 1124 c0 -93 11 -117 25 -54 7 30 47 70 71 70 18 0 54 -36 54
-54 0 -21 -30 -48 -49 -44 -20 4 -27 38 -10 49 7 4 10 11 6 15 -10 10 -37 -16
-37 -36 0 -44 77 -54 95 -12 8 18 18 22 56 22 32 0 49 5 53 15 3 8 12 15 21
15 9 0 18 -7 21 -15 5 -12 24 -15 93 -13 l86 2 -75 3 c-58 3 -78 8 -93 23 -22
25 -32 25 -57 0 -23 -23 -60 -27 -60 -5 0 26 -53 75 -89 82 -25 4 -32 3 -27
-5 4 -7 15 -12 25 -12 28 0 71 -39 71 -63 0 -20 -3 -19 -26 11 -31 39 -78 44
-112 12 l-22 -21 0 56 c0 30 -4 55 -10 55 -6 0 -10 -39 -10 -96z"/>
<path d="M570 1081 c-10 -20 -19 -21 -151 -21 -91 0 -138 -4 -134 -10 7 -11
213 -14 263 -4 19 4 34 14 38 26 8 28 -2 34 -16 9z"/>
<path d="M1191 1090 c-1 -40 14 -45 155 -49 90 -2 140 1 147 8 8 8 -27 11
-130 11 -134 0 -141 1 -156 23 -11 15 -16 17 -16 7z"/>
<path d="M435 930 l-59 -60 59 -60 60 -60 60 60 60 60 -60 60 -60 60 -60 -60z
m42 -86 c-4 -4 -53 13 -66 23 -3 2 11 19 30 39 l34 35 3 -46 c2 -26 1 -49 -1
-51z m103 25 c0 -6 -53 -29 -66 -29 -2 0 -4 23 -4 52 l0 52 35 -34 c19 -19 35
-37 35 -41z m-45 -59 c-10 -11 -21 -17 -24 -14 -3 3 3 12 13 20 28 20 32 17
11 -6z m-60 -1 c11 -17 -1 -21 -15 -4 -8 9 -8 15 -2 15 6 0 14 -5 17 -11z"/>
<path d="M953 955 l-53 -35 0 -54 0 -55 54 -31 55 -31 50 28 51 28 0 62 0 61
-50 31 c-28 17 -51 31 -53 30 -1 0 -26 -15 -54 -34z m27 -40 c0 -3 -8 -17 -17
-32 -16 -23 -17 -24 -24 -7 -13 34 -9 44 16 44 14 0 25 -2 25 -5z m110 -7 c0
-7 -5 -20 -10 -28 -9 -13 -12 -12 -25 4 -21 28 -19 36 10 36 14 0 25 -6 25
-12z m-57 -27 c23 -40 23 -41 -23 -41 -45 0 -46 0 -25 40 19 37 26 37 48 1z
m-1 -83 l-22 -22 -22 22 -22 22 44 0 44 0 -22 -22z m48 12 c0 -5 -5 -10 -11
-10 -5 0 -7 5 -4 10 3 6 8 10 11 10 2 0 4 -4 4 -10z"/>
<path d="M183 954 l-43 -25 0 -62 0 -62 50 -28 50 -28 50 27 50 27 0 63 0 63
-43 26 c-54 31 -62 31 -114 -1z m121 -35 c-3 -5 -19 -16 -35 -25 -28 -14 -32
-14 -64 6 -19 12 -35 23 -35 26 0 2 17 12 37 22 36 19 37 19 70 0 18 -11 30
-24 27 -29z m-108 -40 c29 -18 34 -26 34 -60 0 -21 -3 -39 -6 -39 -4 0 -22 9
-40 21 -29 18 -34 26 -34 60 0 21 3 39 6 39 4 0 22 -9 40 -21z m134 -19 c0
-35 -5 -43 -32 -60 -45 -27 -48 -26 -48 19 0 33 5 42 33 60 44 28 47 27 47
-19z"/>
<path d="M1201 919 l-54 -60 24 -25 c13 -14 40 -39 60 -54 l35 -29 60 54 59
53 -60 61 c-33 34 -62 61 -65 60 -3 0 -29 -27 -59 -60z m89 1 l20 -39 -21 -12
c-16 -8 -28 -8 -46 0 l-24 11 21 40 c11 22 22 40 25 40 3 0 14 -18 25 -40z
m-56 -66 c10 -4 16 -18 16 -36 l0 -30 -34 29 c-19 15 -35 31 -35 36 -1 9 31 9
53 1z m85 -30 l-34 -35 -3 27 c-4 30 11 44 47 44 25 0 24 -1 -10 -36z"/>
<path d="M1471 908 c-60 -80 -63 -64 23 -132 l36 -28 55 42 c30 23 55 44 55
46 0 8 -104 144 -110 144 -3 0 -30 -32 -59 -72z m47 -88 l-3 -41 -37 31 -38
31 38 50 37 50 3 -40 c2 -23 2 -59 0 -81z m70 64 l31 -41 -22 -20 c-60 -52
-57 -53 -57 38 0 46 4 79 8 74 5 -6 23 -28 40 -51z"/>
<path d="M698 958 c-48 -40 -61 -99 -31 -146 27 -42 44 -51 93 -51 51 0 70 11
93 56 21 41 21 72 1 103 -27 40 -45 50 -94 50 -25 0 -53 -6 -62 -12z m80 -5
c-10 -2 -26 -2 -35 0 -10 3 -2 5 17 5 19 0 27 -2 18 -5z m-30 -53 c2 -17 -4
-29 -19 -38 -19 -12 -24 -11 -41 6 -17 16 -18 23 -8 41 17 32 64 25 68 -9z
m93 9 c9 -18 7 -25 -9 -41 -16 -16 -23 -18 -41 -9 -20 11 -29 50 -14 64 14 15
53 6 64 -14z m-141 -103 c0 -5 -7 -1 -15 10 -8 10 -14 24 -14 29 0 6 6 1 14
-9 8 -11 15 -24 15 -30z m84 31 c28 -21 13 -57 -24 -57 -33 0 -50 31 -30 55
15 19 31 19 54 2z m52 -19 c-11 -15 -16 -18 -16 -7 0 16 21 42 28 34 2 -2 -3
-14 -12 -27z"/>
<path d="M436 693 c89 -4 91 -4 87 -27 -8 -41 20 -56 107 -56 74 0 80 -2 108
-30 27 -27 33 -29 61 -19 55 19 67 73 26 114 l-24 25 -228 -2 c-125 -1 -187
-4 -137 -5z m144 -19 c0 -11 -5 -14 -16 -10 -10 4 -14 1 -12 -6 8 -23 43 -15
46 10 3 18 10 22 40 22 l36 0 -29 -30 c-46 -48 -121 -37 -101 15 7 20 36 19
36 -1z m105 -14 c-16 -16 -33 -30 -39 -30 -5 0 3 14 19 30 16 17 33 30 39 30
5 0 -3 -13 -19 -30z m123 14 c40 -28 21 -104 -27 -104 -22 0 -41 19 -41 42 0
27 30 35 47 12 14 -19 15 -19 11 1 -4 23 -44 33 -61 16 -6 -6 -22 -11 -36 -11
l-25 0 29 30 c32 34 68 39 103 14z"/>
<path d="M860 620 l0 -80 -25 6 c-15 4 -25 2 -25 -5 0 -6 9 -11 20 -11 11 0
23 -7 26 -15 15 -38 24 -6 24 85 0 60 -4 100 -10 100 -6 0 -10 -33 -10 -80z"/>
<path d="M900 600 c0 -91 9 -123 24 -85 3 8 15 15 26 15 11 0 20 5 20 11 0 7
-10 9 -25 5 l-25 -6 0 80 c0 47 -4 80 -10 80 -6 0 -10 -40 -10 -100z"/>
<path d="M955 675 c-41 -41 -29 -95 26 -114 28 -10 34 -8 61 19 28 28 34 30
108 30 87 0 115 15 107 56 -4 23 -2 23 87 27 50 1 -12 4 -137 5 l-228 2 -24
-25z m120 -15 l29 -30 -25 0 c-14 0 -30 5 -36 11 -17 17 -57 7 -61 -16 -4 -20
-3 -20 11 -1 17 23 47 15 47 -12 0 -23 -19 -42 -41 -42 -48 0 -67 76 -27 104
35 25 71 20 103 -14z m40 0 c16 -16 24 -30 19 -30 -6 0 -23 14 -39 30 -16 17
-24 30 -19 30 6 0 23 -13 39 -30z m67 8 c3 -25 38 -33 46 -10 2 7 -2 10 -12 6
-11 -4 -16 -1 -16 11 0 10 6 15 18 13 11 -2 17 -12 17 -28 0 -21 -5 -25 -35
-28 -28 -2 -41 3 -65 28 l-29 30 36 0 c30 0 37 -4 40 -22z"/>
</g>
</svg>
